<?xml version="1.0" encoding="UTF-8" standalone="no"?>
<!DOCTYPE svg PUBLIC "-//W3C//DTD SVG 1.1//EN" "http://www.w3.org/Graphics/SVG/1.1/DTD/svg11.dtd">
<svg width="100%" height="100%" viewBox="0 0 1183 671" version="1.1" xmlns="http://www.w3.org/2000/svg" xmlns:xlink="http://www.w3.org/1999/xlink" xml:space="preserve" xmlns:serif="http://www.serif.com/" style="fill-rule:evenodd;clip-rule:evenodd;stroke-linejoin:round;stroke-miterlimit:2;">
    <path d="M612.054,530.075C609.896,532.229 607.358,534.392 604.433,536.537C601.504,538.692 598.038,539.779 594.038,539.779C587.875,539.779 583.183,537.229 579.95,532.15C576.717,527.071 575.1,516.833 575.1,501.429C575.1,490.962 577.642,482.192 582.725,475.1C587.804,468.021 597.575,461.55 612.054,455.7L612.054,530.075ZM728.229,527.3C727.454,526.371 726.454,525.917 725.225,525.917C723.379,525.917 721.842,526.763 720.613,528.454C719.375,530.146 718.071,532.075 716.679,534.229C715.296,536.387 713.604,538.308 711.604,540.004C709.592,541.696 707.054,542.546 703.979,542.546C698.738,542.546 696.125,539.621 696.125,533.767L696.125,409.512C696.125,390.729 690.967,376.333 680.654,366.317C670.329,356.317 652.546,351.304 627.3,351.304C612.208,351.304 597.042,353.383 581.796,357.542C566.554,361.7 552.85,367.242 540.687,374.171C528.517,381.1 518.583,388.954 510.892,397.729C503.192,406.508 499.342,415.517 499.342,424.75C499.342,433.379 502.037,440.221 507.429,445.308C512.812,450.387 521.979,452.925 534.912,452.925C547.537,452.925 557.237,449.621 564.013,442.996C570.783,436.379 574.175,427.837 574.175,417.362C574.175,411.812 573.867,406.2 573.254,400.504C572.633,394.804 572.329,389.346 572.329,384.104C572.329,377.025 574.792,371.629 579.721,367.938C584.642,364.237 590.804,362.392 598.196,362.392C602.817,362.392 606.279,363.704 608.592,366.317C610.9,368.937 612.054,373.937 612.054,381.329L612.054,446C588.338,454.317 568.704,461.471 553.158,467.475C537.6,473.483 525.213,479.333 515.971,485.029C506.733,490.733 500.267,496.813 496.571,503.275C492.879,509.746 491.029,517.446 491.029,526.371C491.029,531.304 492.025,536.313 494.029,541.387C496.029,546.471 499.262,551.012 503.733,555.017C508.192,559.021 513.813,562.25 520.592,564.717C527.363,567.175 535.679,568.412 545.538,568.412C557.237,568.412 568.633,565.946 579.721,561.025C590.804,556.1 602.658,548.708 615.288,538.846C618.058,548.083 623.142,555.325 630.533,560.558C637.925,565.792 649.162,568.412 664.254,568.412C676.567,568.412 686.887,566.637 695.204,563.1C703.517,559.558 710.221,555.554 715.296,551.087C720.375,546.625 723.996,542.312 726.154,538.154C728.3,533.996 729.383,531.304 729.383,530.075C729.383,529.146 728.992,528.225 728.229,527.3Z" style="fill-rule:nonzero;"/>
    <path d="M867.496,456.621C866.267,464.937 864.646,471.333 862.646,475.792C860.642,480.263 858.104,483.262 855.029,484.804C851.942,486.35 848.558,487.112 844.862,487.112C841.167,487.112 837.775,486.35 834.7,484.804C831.621,483.262 829.075,480.263 827.083,475.792C825.071,471.333 823.45,464.937 822.229,456.621C820.996,448.312 820.383,437.221 820.383,423.367C820.383,409.512 820.996,398.421 822.229,390.108C823.45,381.792 825.071,375.404 827.083,370.933C829.075,366.475 831.621,363.471 834.7,361.929C837.775,360.392 841.167,359.621 844.862,359.621C848.558,359.621 851.942,360.392 855.029,361.929C858.104,363.471 860.642,366.475 862.646,370.933C864.646,375.404 866.267,381.792 867.496,390.108C868.725,398.421 869.342,409.512 869.342,423.367C869.342,437.221 868.725,448.312 867.496,456.621ZM842.087,594.975C860.258,594.812 875.275,595.121 887.133,595.896C898.979,596.658 907.833,598.817 913.696,602.362C919.537,605.896 922.467,612.6 922.467,622.458C922.467,633.542 915.842,642.55 902.604,649.483C889.363,656.408 867.496,659.875 837.008,659.875C813.913,659.875 795.125,656.483 780.654,649.712C766.175,642.933 758.942,632.621 758.942,618.762C758.942,608.9 760.862,601.9 764.721,597.742C768.563,593.583 772.954,591.508 777.879,591.508C802.521,593.967 823.917,595.121 842.087,594.975ZM927.579,364.529C931.1,362.537 936.179,361.333 942.808,360.883C949.438,360.45 958.258,360.225 969.312,360.225C987.413,360.225 1000.54,357.242 1008.72,351.279C1016.89,345.313 1020.98,333.95 1020.98,317.162C1020.98,305.237 1017.55,295.746 1010.71,288.675C1003.85,281.612 993.821,278.079 980.571,278.079C972.613,278.079 964.442,279.846 956.054,283.379C947.662,286.921 940.042,292.317 933.2,299.604C926.354,306.892 920.712,315.95 916.317,326.767C911.892,337.592 909.687,350.283 909.687,364.854L909.687,365.754C893.654,358.104 873.629,353.258 849.483,351.304L843.017,351.304C828.846,351.617 815.6,353.463 803.288,356.85C790.967,360.242 780.263,365.092 771.179,371.4C762.1,377.717 754.937,385.571 749.704,394.958C744.463,404.35 741.85,415.363 741.85,427.983C741.85,438.146 744.162,447 748.779,454.546C753.4,462.096 759.479,468.488 767.029,473.717C774.567,478.95 783.192,483.037 792.892,485.958C802.596,488.888 812.529,490.808 822.688,491.729L822.688,492.654C796.825,494.2 776.879,499.508 762.871,508.592C748.85,517.679 741.85,531.304 741.85,549.475C741.85,557.483 743.7,564.408 747.396,570.258C751.088,576.104 757.712,580.571 767.258,583.654L767.258,584.583C762.638,584.883 758.021,585.883 753.4,587.579C748.779,589.271 744.625,591.662 740.933,594.737C737.229,597.817 734.225,601.671 731.925,606.287C729.612,610.908 728.458,616.296 728.458,622.458C728.458,628.617 730.533,634.542 734.692,640.237C738.85,645.933 745.237,651.096 753.863,655.717C762.483,660.337 773.492,664.033 786.887,666.8C800.283,669.575 816.371,670.958 835.162,670.958C877.042,670.958 908.846,664.262 930.55,650.867C952.258,637.471 963.117,618.762 963.117,594.737C963.117,573.492 957.413,557.175 946.025,545.771C934.633,534.392 915.687,528.225 889.208,527.3L807.908,524.067C803.596,523.758 799.825,522.913 796.587,521.521C793.358,520.138 791.737,517.6 791.737,513.904C791.737,511.129 792.738,508.979 794.742,507.433C796.742,505.896 800.354,504.429 805.596,503.046C810.829,501.662 818.071,500.208 827.308,498.662C836.546,497.125 848.404,495.275 862.879,493.121C890.9,488.804 912.075,480.871 926.396,469.325C940.712,457.775 947.875,441.842 947.875,421.512C947.875,400.267 939.1,383.867 921.546,372.321C921.362,372.2 921.158,372.096 920.971,371.975C922.163,368.858 924.321,366.35 927.579,364.529Z" style="fill-rule:nonzero;"/>
    <path d="M1055.5,381.329C1059.2,368.704 1067.05,362.392 1079.06,362.392C1091.07,362.392 1098.92,368.704 1102.62,381.329C1106.31,393.958 1108.16,411.358 1108.16,433.525L1049.96,433.525C1049.96,411.358 1051.8,393.958 1055.5,381.329ZM1177.91,481.108C1176.06,481.108 1174.37,482.337 1172.83,484.804C1171.29,487.267 1168.67,490.808 1164.98,495.421C1159.44,502.513 1152.81,508.125 1145.12,512.283C1137.42,516.442 1127.1,518.525 1114.17,518.525C1096.61,518.525 1082.22,512.137 1070.98,499.354C1059.73,486.575 1053.03,468.329 1050.88,444.617L1179.3,444.617C1178.99,428.908 1176.22,415.208 1170.99,403.504C1165.75,391.804 1158.75,382.104 1149.97,374.4C1141.19,366.708 1131.1,360.933 1119.71,357.079C1108.32,353.229 1096.46,351.304 1084.15,351.304C1067.82,351.304 1052.8,354.154 1039.1,359.85C1025.4,365.55 1013.54,373.329 1003.54,383.175C993.529,393.042 985.675,404.587 979.979,417.817C974.275,431.067 971.433,445.383 971.433,460.779C971.433,476.483 974.046,490.887 979.288,503.975C984.521,517.062 991.908,528.383 1001.45,537.929C1011,547.475 1022.48,554.946 1035.87,560.329C1049.27,565.712 1064.12,568.412 1080.45,568.412C1094.92,568.412 1107.54,566.567 1118.33,562.871C1129.1,559.175 1138.19,554.554 1145.58,549.012C1152.97,543.471 1159.05,537.392 1163.83,530.767C1168.59,524.142 1172.37,517.825 1175.15,511.821C1177.91,505.821 1179.77,500.508 1180.69,495.888C1181.61,491.271 1182.07,488.196 1182.07,486.65C1182.07,482.954 1180.69,481.108 1177.91,481.108Z" style="fill-rule:nonzero;"/>
    <path d="M240.667,11.783C244.663,11.321 246.671,9.242 246.671,5.55C246.671,1.85 244.362,0 239.742,0C230.804,0 219.8,0.163 206.713,0.467C193.621,0.775 178.608,0.925 161.675,0.925C144.733,0.925 129.721,0.775 116.638,0.467C103.542,0.163 92.537,0 83.608,0C78.988,0 76.679,1.85 76.679,5.55C76.679,9.242 78.679,11.321 82.683,11.783C86.683,12.246 91.15,12.863 96.079,13.629C101.004,14.404 105.471,16.171 109.475,18.942C113.475,21.712 115.479,27.104 115.479,35.108L115.479,280.858C115.479,290.096 112.779,297.338 107.396,302.571C102.004,307.808 95.921,310.421 89.15,310.421C74.058,310.421 66.517,304.417 66.517,292.404C66.517,289.633 67.279,286.946 68.825,284.325C70.362,281.713 72.058,278.937 73.908,276.008C75.754,273.083 77.442,269.933 78.988,266.538C80.525,263.154 81.3,259.308 81.3,254.992C81.3,247.296 79.983,240.829 77.371,235.588C74.75,230.358 71.521,226.121 67.671,222.887C63.817,219.65 59.658,217.346 55.2,215.958C50.729,214.571 46.654,213.879 42.958,213.879C30.025,213.879 19.629,217.729 11.779,225.425C3.925,233.129 0,244.217 0,258.683C0,268.85 2.379,277.854 7.158,285.708C11.929,293.563 18.242,300.108 26.096,305.342C33.95,310.583 42.8,314.579 52.658,317.354C62.508,320.125 72.521,321.508 82.683,321.508C104.858,321.508 123.871,318.738 139.733,313.192C155.587,307.65 168.525,299.567 178.533,288.942C188.538,278.317 195.929,265.308 200.708,249.908C205.479,234.517 207.867,217.113 207.867,197.712L207.867,35.108C207.867,27.104 209.867,21.712 213.875,18.942C217.871,16.171 222.338,14.404 227.267,13.629C232.192,12.863 236.658,12.246 240.667,11.783Z" style="fill-rule:nonzero;"/>
    <path d="M316.413,130.729C320.113,118.104 327.962,111.792 339.975,111.792C351.983,111.792 359.838,118.104 363.533,130.729C367.229,143.362 369.075,160.758 369.075,182.929L310.871,182.929C310.871,160.758 312.721,143.362 316.413,130.729ZM420.583,379.483C406.567,372.092 391.404,366.317 375.083,362.162C358.758,358.004 343.592,353.696 329.583,349.225C315.567,344.767 303.946,339.142 294.708,332.367C285.467,325.596 280.85,316.05 280.85,303.725C280.85,288.637 285.542,276.783 294.938,268.154C304.329,259.538 317.646,255.225 334.896,255.225C346.904,255.225 357.833,257.846 367.692,263.079C377.546,268.312 386.321,274.854 394.021,282.708C401.717,290.558 408.417,299.337 414.117,309.037C419.812,318.738 424.513,327.904 428.208,336.525C431.283,343.304 433.287,348.533 434.212,352.229C435.137,355.925 436.825,357.771 439.296,357.771C441.754,357.771 443.292,357.158 443.913,355.925C444.529,354.696 444.838,352.85 444.838,350.383C444.838,349.154 444.758,346.917 444.608,343.683C444.446,340.45 444.296,335.367 444.146,328.437C443.987,321.508 443.604,312.121 442.988,300.258C442.367,288.413 441.604,273.088 440.679,254.3C440.367,247.529 438.521,244.138 435.137,244.138C432.667,244.138 431.129,244.987 430.517,246.675C429.896,248.371 429.283,250.3 428.667,252.45C428.046,254.608 427.054,256.533 425.667,258.229C424.279,259.921 421.583,260.767 417.583,260.767C414.5,260.767 410.421,259.921 405.337,258.229C400.258,256.533 394.404,254.608 387.788,252.45C381.162,250.3 373.7,248.371 365.383,246.675C357.067,244.987 348.133,244.138 338.592,244.138C335.192,244.138 331.85,244.304 328.525,244.508C319.317,232.05 313.721,215.237 311.796,194.017L440.213,194.017C439.904,178.308 437.133,164.608 431.9,152.904C426.658,141.204 419.658,131.504 410.879,123.8C402.104,116.108 392.013,110.333 380.625,106.479C369.225,102.629 357.371,100.704 345.054,100.704C328.729,100.704 313.717,103.554 300.017,109.25C286.308,114.95 274.45,122.729 264.446,132.579C254.437,142.437 246.583,153.988 240.892,167.221C235.187,180.467 232.346,194.783 232.346,210.183C232.346,225.887 234.958,240.287 240.196,253.375C243.192,260.875 246.983,267.725 251.4,274.058C241.638,282.587 233.687,292.725 227.725,304.65C221.263,317.583 218.025,332.212 218.025,348.533C218.025,368.246 222.413,383.721 231.192,394.958C239.967,406.2 250.825,415.054 263.758,421.512C276.692,427.983 290.854,433.142 306.258,436.992C321.65,440.85 335.821,445.233 348.754,450.158C361.688,455.083 372.542,461.55 381.321,469.558C390.096,477.567 394.483,489.117 394.483,504.204C394.483,513.75 392.942,522.067 389.863,529.146C386.783,536.233 382.625,542.158 377.392,546.929C372.15,551.712 366.075,555.246 359.146,557.554C352.217,559.867 344.9,561.025 337.204,561.025C306.096,561.025 279.304,544.55 256.829,511.592C250.05,501.737 245.05,492.117 241.817,482.721C238.583,473.337 236.042,465.017 234.196,457.775C232.346,450.55 230.8,444.692 229.575,440.221C228.342,435.763 226.342,433.525 223.571,433.525C222.025,433.525 220.637,434.217 219.413,435.608C218.179,436.992 217.563,439.842 217.563,444.154L217.563,562.871C217.563,569.021 219.413,572.108 223.108,572.108C224.954,572.108 226.263,571.254 227.033,569.567C227.8,567.867 228.65,565.946 229.575,563.792C230.496,561.642 231.804,559.712 233.5,558.021C235.187,556.329 237.887,555.479 241.587,555.479C246.204,555.479 251.517,556.329 257.521,558.021C263.525,559.712 270.375,561.642 278.079,563.792C285.771,565.946 294.317,567.867 303.717,569.567C313.104,571.254 323.346,572.108 334.433,572.108C353.525,572.108 371.308,569.404 387.788,564.025C404.258,558.637 418.504,551.087 430.517,541.387C442.529,531.683 451.996,519.908 458.925,506.05C465.854,492.192 469.321,476.65 469.321,459.396C469.321,438.454 464.7,421.75 455.462,409.275C446.221,396.808 434.596,386.871 420.583,379.483Z" style="fill-rule:nonzero;"/>
    <path d="M554.079,314.579C563.783,314.883 572.167,315.042 579.254,315.042C582.642,315.042 584.337,313.504 584.337,310.421C584.337,307.962 583.104,306.421 580.642,305.804C578.175,305.192 575.558,304.417 572.787,303.492C570.017,302.571 567.396,300.954 564.933,298.642C562.467,296.333 561.242,292.404 561.242,286.863L561.242,147.362C566.162,142.737 571.633,138.583 577.637,134.888C583.646,131.192 589.721,129.342 595.888,129.342C601.429,129.342 606.429,131.421 610.9,135.583C615.358,139.742 617.596,146.896 617.596,157.062L617.596,286.863C617.596,292.404 616.363,296.333 613.9,298.642C611.433,300.954 608.821,302.571 606.05,303.492C603.275,304.417 600.658,305.192 598.196,305.804C595.729,306.421 594.5,307.962 594.5,310.421C594.5,313.504 596.188,315.042 599.579,315.042C606.662,315.042 615.054,314.883 624.754,314.579C634.458,314.267 645.154,314.117 656.858,314.117C668.563,314.117 679.417,314.267 689.425,314.579C699.429,314.883 708.9,315.042 717.838,315.042C721.221,315.042 722.917,313.504 722.917,310.421C722.917,307.962 721.529,306.421 718.758,305.804C715.988,305.192 712.904,304.417 709.521,303.492C706.125,302.571 703.054,300.954 700.283,298.642C697.508,296.333 696.125,292.404 696.125,286.863L696.125,169.533C696.125,159.367 695.2,150.133 693.354,141.817C691.504,133.5 688.425,126.271 684.112,120.108C679.796,113.95 673.792,109.179 666.1,105.783C658.4,102.404 648.85,100.704 637.458,100.704C630.992,100.704 624.908,101.167 619.212,102.087C613.512,103.012 607.737,104.708 601.892,107.171C596.037,109.642 589.8,112.946 583.183,117.104C576.558,121.262 569.246,126.421 561.242,132.579L561.242,100.704C541.221,105.946 524.288,109.483 510.429,111.329C496.571,113.179 485.325,114.492 476.708,115.258C468.083,116.029 461.846,116.571 458,116.871C454.146,117.179 452.225,118.258 452.225,120.108C452.225,122.263 453.842,123.8 457.075,124.725C460.308,125.65 463.775,127.037 467.467,128.883C471.163,130.729 474.629,133.579 477.862,137.429C481.096,141.283 482.712,147.054 482.712,154.75L482.712,286.863C482.712,292.404 481.325,296.333 478.554,298.642C475.783,300.954 472.7,302.571 469.317,303.492C465.925,304.417 462.85,305.192 460.075,305.804C457.304,306.421 455.921,307.962 455.921,310.421C455.921,313.504 457.608,315.042 461,315.042C469.929,315.042 479.4,314.883 489.408,314.579C499.413,314.267 510.267,314.117 521.975,314.117C533.675,314.117 544.379,314.267 554.079,314.579Z" style="fill-rule:nonzero;"/>
    <path d="M831.467,317.813C844.092,317.813 856.183,315.887 867.729,312.037C879.279,308.192 889.442,302.8 898.217,295.871C906.996,288.942 913.996,280.708 919.238,271.158C924.471,261.617 927.088,251.296 927.088,240.208C927.088,227.588 923.854,217.188 917.388,209.025C910.921,200.871 902.837,194.092 893.137,188.704C883.437,183.321 872.883,178.771 861.492,175.075C850.096,171.379 839.55,167.846 829.85,164.45C820.146,161.067 812.067,157.288 805.596,153.133C799.133,148.975 795.896,143.513 795.896,136.738C795.896,128.729 799.204,122.112 805.833,116.871C812.45,111.637 821.15,109.021 831.933,109.021C841.167,109.021 849.483,110.946 856.875,114.792C864.263,118.646 870.654,123.496 876.042,129.342C881.425,135.2 885.817,141.354 889.208,147.821C892.592,154.292 895.212,159.992 897.058,164.917C900.446,174.775 903.221,179.692 905.379,179.692C908.454,179.692 909.996,177.079 909.996,171.842L909.996,114.1C897.058,110.1 884.663,106.871 872.808,104.4C860.95,101.937 848.096,100.704 834.237,100.704C821.921,100.704 810.446,102.479 799.825,106.017C789.2,109.558 779.879,114.562 771.879,121.029C763.867,127.496 757.558,135.117 752.942,143.896C748.321,152.671 746.008,162.142 746.008,172.304C746.008,185.238 749.162,195.708 755.483,203.717C761.792,211.729 769.571,218.346 778.808,223.579C788.046,228.817 798.208,233.046 809.296,236.279C820.383,239.517 830.546,242.908 839.783,246.446C849.021,249.992 856.792,254.146 863.108,258.917C869.421,263.696 872.579,270.083 872.579,278.087C872.579,287.946 869.346,295.642 862.879,301.183C856.413,306.729 846.4,309.5 832.85,309.5C816.225,309.5 802.438,304.267 791.508,293.792C780.575,283.325 771.567,269.775 764.488,253.142C762.017,247.908 760.25,243.292 759.179,239.283C758.096,235.283 757.25,231.971 756.633,229.35C756.012,226.737 755.321,224.733 754.554,223.346C753.783,221.962 752.625,221.271 751.092,221.271C747.396,221.271 745.546,223.429 745.546,227.737L745.546,302.571C758.171,307.808 771.717,311.654 786.196,314.117C800.671,316.579 815.763,317.813 831.467,317.813Z" style="fill-rule:nonzero;"/>
</svg>
